# AST/ASF file generated using VICON BodyLanguage
# -----------------------------------------------
:version 1.10
:name VICON
:units
  mass 1.0
  length 0.45
  angle deg
:documentation
   .ast/.asf automatically generated from VICON data using
   VICON BodyBuilder and BodyLanguage model FoxedUp or BRILLIANT.MOD
:root
   order TX TY TZ RX RY RZ
   axis XYZ
   position 0 0 0  
   orientation 0 0 0 
:bonedata
  begin
     id 1 
     name lhipjoint
     direction 0.707368 -0.647095 0.284426 
     length 2.60678 
     axis 0 0 0  XYZ
  end
  begin
     id 2 
     name lfemur
     direction 0.34202 -0.939693 0  
     length 6.63812  
     axis 0 0 20  XYZ
    dof rx ry rz
    limits (-160.0 20.0)
           (-70.0 70.0)
           (-60.0 70.0)
  end
  begin
     id 3 
     name ltibia
     direction 0.34202 -0.939693 0   
     length 7.51178   
     axis 0 0 20   XYZ
    dof rx
    limits (-10.0 170.0)
  end
  begin
     id 4 
     name lfoot
     direction 0.121251 -0.333133 0.935051   
     length 1.83716   
     axis -90 7.62852e-016 20   XYZ
    dof rx rz
    limits (-45.0 90.0)
           (-70.0 20.0)
  end
  begin
     id 5 
     name ltoes
     direction 1.53611e-011 -4.21962e-011 1   
     length 0.916133   
     axis -90 7.62852e-016 20   XYZ
    dof rx
    limits (-90.0 20.0)
  end
  begin
     id 6 
     name rhipjoint
     direction -0.692419 -0.660507 0.290321   
     length 2.55385  
     axis 0 0 0  XYZ 
  end
  begin
     id 7 
     name rfemur
     direction -0.34202 -0.939693 0   
     length 7.29079   
     axis 0 0 -20   XYZ
    dof rx ry rz
    limits (-160.0 20.0)
           (-70.0 70.0)
           (-70.0 60.0)
  end
  begin
     id 8 
     name rtibia
     direction -0.34202 -0.939693 0   
     length 7.47143   
     axis 0 0 -20   XYZ
    dof rx
    limits (-10.0 170.0)
 end
 begin
     id 9 
     name rfoot
     direction -0.119907 -0.329441 0.936532   
     length 1.79439  
     axis -90 -7.62852e-016 -20   XYZ
    dof rx rz
    limits (-45.0 90.0)
           (-20.0 70.0)
  end
  begin
     id 10 
     name rtoes
     direction -1.53571e-011 -4.21961e-011 1   
     length 0.896039   
     axis -90 -7.62852e-016 -20   XYZ
    dof rx
    limits (-90.0 20.0)
  end
  begin
     id 11 
     name lowerback
     direction 0.0367721 0.992912 -0.113016   
     length 1.73542   
     axis 0 0 0   XYZ
    dof rx ry rz
    limits (-20.0 45.0)
           (-30.0 30.0)
           (-30.0 30.0)
  end
  begin
     id 12 
     name upperback
     direction -0.000314626 0.990678 0.136227   
     length 1.7514   
     axis 0 0 0   XYZ
    dof rx ry rz
    limits (-20.0 45.0)
           (-30.0 30.0)
           (-30.0 30.0)
  end
  begin
     id 13 
     name thorax
     direction -0.0226159 0.981151 0.191917   
     length 1.71471   
     axis 0 0 0   XYZ
    dof rx ry rz
    limits (-20.0 45.0)
           (-30.0 30.0)
           (-30.0 30.0)
  end
  begin
     id 14 
     name lowerneck
     direction 0.0219333 0.998071 0.0580739   
     length 1.65882   
     axis 0 0 0   XYZ
    dof rx ry rz
    limits (-20.0 45.0)
           (-30.0 30.0)
           (-30.0 30.0)
  end
  begin
     id 15 
     name upperneck
     direction 0.0384529 0.980058 -0.194957   
     length 1.6612   
     axis 0 0 0   XYZ
    dof rx ry rz
    limits (-20.0 45.0)
           (-30.0 30.0)
           (-30.0 30.0)
  end
  begin
     id 16
     name head
     direction 0.00592123 0.997421 -0.0715234  
     length 1.68077  
     axis 0 0 0   XYZ
    dof rx ry rz
    limits (-20.0 45.0)
           (-30.0 30.0)
           (-30.0 30.0)
  end
  begin
     id 17 
     name lclavicle
     direction 0.904803 0.417826 0.0821728  
     length 3.42227  
     axis 0 0 0   XYZ
    dof ry rz
    limits (-20.0 10.0)
           (0.0 20.0)
  end
  begin
     id 18 
     name lhumerus
     direction 1 -4.48965e-011 -2.68786e-027   
     length 5.11878   
     axis -180 -30 -90   XYZ
    dof rx ry rz
    limits (-60.0 90.0)
           (-90.0 90.0)
           (-90.0 90.0)
  end
  begin
     id 19
     name lradius
     direction 1 -4.48965e-011 2.61168e-028   
     length 3.59971   
     axis -180 -30 -90   XYZ
    dof rx
    limits (-10.0 170.0)
  end
  begin
     id 20
     name lwrist
     direction 1 -4.48965e-011 1.58672e-027   
     length 1.79985   
     axis -1.65735e-015 90 90   XYZ
    dof ry
    limits (-180.0 0.0)
 end
  begin
     id 21 
     name lhand
     direction 1 -4.48942e-011 3.17344e-027   
     length 0.62877   
     axis -2.02492e-015 90 90   XYZ
    dof rx rz
    limits (-90.0 90.0)
           (-45.0 45.0)
  end
  begin
     id 22 
     name lfingers
     direction 1 -4.49011e-011 6.34687e-027   
     length 0.506931   
     axis -4.04985e-015 90 90   XYZ
    dof rx
    limits (0.0 90.0)
  end
  begin
     id 23
     name lthumb
     direction 0.707107 -6.34982e-011 0.707107   
     length 0.727854   
     axis -90 45 2.85299e-015   XYZ
    dof rx rz
    limits (-45.0 45.0)
           (-45.0 45.0)
  end
  begin
     id 24 
     name rclavicle
     direction -0.945647 0.32488 0.0143075   
     length 3.52737  
     axis 0 0 0   XYZ 
    dof ry rz
    limits (-10.0 20.0)
           (-20.0 0.0)
  end
  begin
     id 25 
     name rhumerus
     direction -1 -4.48962e-011 1.92182e-027  
     length 5.4902   
     axis -180 30 90   XYZ
    dof rx ry rz
    limits (-90.0 60.0)
           (-90.0 90.0)
           (-90.0 90.0)
  end
  begin
     id 26 
     name rradius
     direction -1 -4.48967e-011 -5.97193e-028   
     length 3.20659   
     axis -180 30 90   XYZ
    dof rx
    limits (-10.0 170.0)
  end
  begin
     id 27 
     name rwrist
     direction -1 -4.48964e-011 1.58672e-027   
     length 1.6033   
     axis -1.65735e-015 -90 -90   XYZ
    dof ry
    limits (-180.0 0.0)
  end
  begin
     id 28
     name rhand
     direction -1 -4.49006e-011 3.17344e-027   
     length 0.691885   
     axis -2.02492e-015 -90 -90   XYZ
    dof rx rz
    limits (-90.0 90.0)
           (-45.0 45.0)
  end
  begin
     id 29
     name rfingers
     direction -1 -4.48908e-011 6.34687e-027   
     length 0.557815   
     axis -4.04985e-015 -90 -90   XYZ
    dof rx
    limits (0.0 90.0)
  end
  begin
     id 30
     name rthumb
     direction -0.707107 -6.34999e-011 0.707107   
     length 0.800915   
     axis -90 -45 -2.85299e-015   XYZ
    dof rx rz
    limits (-45.0 45.0)
           (-45.0 45.0)
  end
:hierarchy
  begin
    root lhipjoint rhipjoint lowerback
    lhipjoint lfemur
    lfemur ltibia
    ltibia lfoot
    lfoot ltoes
    rhipjoint rfemur
    rfemur rtibia
    rtibia rfoot
    rfoot rtoes
    lowerback upperback
    upperback thorax
    thorax lowerneck lclavicle rclavicle
    lowerneck upperneck
    upperneck head
    lclavicle lhumerus
    lhumerus lradius
    lradius lwrist
    lwrist lhand lthumb
    lhand lfingers
    rclavicle rhumerus
    rhumerus rradius
    rradius rwrist
    rwrist rhand rthumb
    rhand rfingers
  end

#!OML:ASF I:\Actors\actors\Patient Classification 1\Patient 1\Session 1\Subject1.ASF
:FULLY-SPECIFIED
:DEGREES
36
root 0.321027 17.4781 7.94682 9.81753 -2.07988 -7.3024
lowerback 1.29811 0.140795 3.4263
upperback -10.7995 0.619376 1.66777
thorax -12.346 0.0600162 -0.173319
lowerneck 0.46337 -14.3039 -12.6077
upperneck 13.5544 -20.866 12.1118
head 6.65256 -10.2581 4.21423
rclavicle 5.26779e-015 -2.74323e-014
rhumerus -45.1835 -18.7632 -74.4716
rradius 27.2269
rwrist 41.1815
rhand 5.35984 -33.397
rfingers 7.12502
rthumb 30.7131 -60.8528
lclavicle 5.26779e-015 -2.74323e-014
lhumerus -47.7592 22.6647 72.0971
lradius 22.1087
lwrist -29.2672
lhand -15.5863 -9.17747
lfingers 7.12502
lthumb 10.5992 20.5352
rfemur -7.50298 26.6339 19.1401
rtibia 3.35784
rfoot -10.7796 -22.4581
rtoes -2.56237
lfemur 0.209292 -39.5012 -10.9485
ltibia -3.38026
lfoot -19.1924 50.3395
ltoes 13.5854
37
root 0.325566 17.4762 7.95005 9.89419 -2.08773 -7.33288
lowerback 1.21379 0.150442 3.5138
upperback -10.8302 0.638755 1.69539
thorax -12.3301 0.0623447 -0.193805
lowerneck 0.313509 -14.2557 -12.5652
upperneck 13.6617 -20.7832 12.0259
head 6.68724 -10.2119 4.17912
rclavicle 3.97569e-016 1.74931e-014
rhumerus -45.3206 -19.0261 -74.0014
rradius 26.9658
rwrist 41.6621
rhand 5.31308 -33.6867
rfingers 7.12502
rthumb 30.6686 -61.1508
lclavicle 3.97569e-016 1.74931e-014
lhumerus -47.3948 21.974 73.2385
lradius 22.3195
lwrist -28.7488
lhand -15.5409 -9.13725
lfingers 7.12502
lthumb 10.6431 20.5732
rfemur -7.48336 26.8832 19.1286
rtibia 3.19889
rfoot -10.8363 -22.6808
rtoes -2.334
lfemur 0.0693765 -39.2754 -10.8198
ltibia -3.38338
lfoot -18.9788 50.1683
ltoes 13.3604
38
root 0.330433 17.4749 7.95414 9.93027 -2.10478 -7.35725
lowerback 1.14723 0.165906 3.59271
upperback -10.8376 0.664228 1.71174
thorax -12.2973 0.0681614 -0.222766
lowerneck 0.232846 -14.2023 -12.5044
upperneck 13.653 -20.6984 12.0123
head 6.67895 -10.1655 4.17213
rclavicle 1.36167e-014 -3.18055e-014
rhumerus -45.464 -19.3944 -73.4517
rradius 26.6877
rwrist 42.237
rhand 5.26237 -33.6684
rfingers 7.12502
rthumb 30.6202 -61.1416
lclavicle 1.36167e-014 -3.18055e-014
lhumerus -47.0143 21.2727 74.3569
lradius 22.502
lwrist -28.308
lhand -15.4097 -9.06665
lfingers 7.12502
lthumb 10.7696 20.6373
rfemur -7.44731 26.9283 19.1271
rtibia 3.09358
rfoot -10.8841 -22.6884
rtoes -1.90117
lfemur 0.0314872 -39.0845 -10.7799
ltibia -3.39946
lfoot -18.784 50.0302
ltoes 13.1536
39
root 0.33407 17.4743 7.95786 9.96302 -2.17376 -7.40139
lowerback 1.09192 0.196314 3.65821
upperback -10.8354 0.709647 1.73455
thorax -12.2596 0.0855295 -0.239678
lowerneck 0.203974 -14.1334 -12.5024
upperneck 13.6133 -20.616 12.1379
head 6.67379 -10.1184 4.21961
rclavicle -4.96962e-016 -1.43125e-014
rhumerus -45.5576 -19.7984 -72.8866
rradius 26.3455
rwrist 42.8212
rhand 5.22877 -33.4808
rfingers 7.12502
rthumb 30.5882 -60.9599
lclavicle -4.96962e-016 -1.43125e-014
lhumerus -46.6737 20.5627 75.4605
lradius 22.7386
lwrist -27.7749
lhand -14.9331 -9.37059
lfingers 7.12502
lthumb 11.2293 20.3089
rfemur -7.47507 26.9737 19.1461
rtibia 3.08004
rfoot -10.8499 -22.6785
rtoes -2.02677
lfemur 0.038849 -39.0492 -10.7474
ltibia -3.41032
lfoot -18.8296 50.0544
ltoes 13.1682
40
root 0.336005 17.4738 7.95996 10.0298 -2.27435 -7.44375
lowerback 1.02825 0.227802 3.69026
upperback -10.8368 0.754191 1.7652
thorax -12.2209 0.106294 -0.229242
lowerneck 0.0874962 -14.0353 -12.7408
upperneck 13.8076 -20.5429 12.4743
head 6.80794 -10.0674 4.34968
rclavicle 1.21259e-014 -1.66979e-014
rhumerus -45.6148 -20.2361 -72.3287
rradius 25.9866
rwrist 43.4487
rhand 5.22187 -33.4831
rfingers 7.12502
rthumb 30.5816 -60.9635
lclavicle 1.21259e-014 -1.66979e-014
lhumerus -46.3558 20.0463 76.4008
lradius 22.8796
lwrist -27.6079
lhand -14.3631 -9.92455
lfingers 7.12502
lthumb 11.7789 19.7242
rfemur -7.60471 27.0348 19.143
rtibia 3.15329
rfoot -10.8099 -22.6742
rtoes -2.44064
lfemur -0.012989 -39.0509 -10.6723
ltibia -3.39727
lfoot -18.9932 50.1298
ltoes 13.2959
41
root 0.338779 17.4737 7.9618 10.0613 -2.39504 -7.43432
lowerback 1.01137 0.25522 3.67044
upperback -10.8236 0.79053 1.78864
thorax -12.1942 0.127729 -0.197084
lowerneck 0.0653467 -13.9728 -12.6418
upperneck 13.6889 -20.4415 12.4809
head 6.75026 -10.0148 4.35314
rclavicle -1.14301e-015 1.47101e-014
rhumerus -45.6804 -20.6328 -71.79
rradius 25.6785
rwrist 44.0305
rhand 5.27826 -33.6596
rfingers 7.12502
rthumb 30.6353 -61.1299
lclavicle -1.14301e-015 1.47101e-014
lhumerus -46.0564 19.3831 77.4099
lradius 23.0305
lwrist -27.4994
lhand -14.3463 -10.3349
lfingers 7.12502
lthumb 11.7952 19.3129
rfemur -7.71577 26.9935 19.0926
rtibia 3.27545
rfoot -10.86 -22.5404
rtoes -2.52164
lfemur 0.0198034 -39.1539 -10.7355
ltibia -3.37762
lfoot -19.2671 50.2909
ltoes 13.5026
